<svg xmlns="http://www.w3.org/2000/svg" viewBox="0 0 64 64">
  <rect width="64" height="64" rx="14" fill="#4ecca3"/>
  <g transform="translate(5,5) scale(0.0264)">
    <path fill="#060a12" d="M784.76,1603.38l55.48-73.69c43.61,38.62,106.39,43.26,155.8,11.85,108.05-68.69,205.11-173.13,282.28-275.09l74.12-97.93c29.19-38.57,53.55-77.77,66.92-124.88,6.81-24.01,15.95-45.14,30.04-65.84,39.87-58.59,29.96-125.13-18.88-176.4-8.46-8.88-13.39-18.89-14.53-31.05-4.3-46.09-32.99-84.49-75.53-102.25l57.47-105.07c45.02,4.79,86.85-7.16,120.15-35.93,34.52-30.18,51.42-74.74,43.51-120.08-9.42-53.98-54.28-91.62-109.14-94.1-18.8-.85-36.36,3.48-55.13,6.78-20-51.26-67.35-86.19-122.77-84.1-66.89,2.52-120.28,57.68-124.43,123.74-.29,38.37,14.01,72.08,39.1,99.88l-60.11,116.37c-50.83-29.86-113.47-12.83-141.52,38.66-8.86,16.27-12.78,33.17-18.76,51.42-44.52,135.84-131.99,286.14-231.16,389.56-30.18,31.48-60.43,60.28-94.31,87.46-67.32,54.02-77.64,139.53-21.2,205.18,14.88,17.31,32.66,30.2,53.7,41.27l-64.85,84.81c-61.76-5.9-117.47,27.18-140.77,83.61-15.39,37.27-9.94,78.92,15.19,110.82,23.07,29.29,61.33,45.38,98.85,41.33,21.59,65.35,97.58,94.96,157.11,62.72,34.47-18.67,54.34-53.4,58.11-92.05,2.61-26.73-4.12-51.25-14.72-77.01Z"/>
    <path fill="#4ecca3" d="M1393.15,850.95c23.42,26.34,26.87,62.76,7.99,93.11-14,22.49-27.2,44.71-34.79,70.64-13.01,44.46-33.94,83.19-61.74,120.11l-56.7,75.3c-82.98,110.2-166.49,208.31-284.84,282.06-32.27,20.11-81.08,7.97-93.39-27.97-22.27-65.08-80.92-107.88-146.88-123.38-18.47-4.34-34.26-12.95-47.97-25.41-36.93-33.57-37.35-91.45,2.44-122.97,78.96-62.56,146.56-136.34,203.8-219.65,64.06-93.25,114.97-194.17,149.4-301.8l9.87-28.24c9.81-18.48,30.62-26.58,50.39-18.48,9.07,3.72,18.42,10.55,24.48,18.93,27.04,37.38,66.34,61.9,112.36,69.74,46.92,7.99,83.35-5.73,112.5,28.42,13.95,16.35,18.31,39.09,13.36,61.16-4.88,21.75-12.54,42.62-22.93,62.78l-57.66,111.92c-25.85,50.17-55.1,95.84-88.21,141.5-29.95,41.3-59.9,79.78-94.05,117.82-47.93,53.38-97.84,102.99-154.94,146.39-8.9,6.77-18.66,12.57-24.71,21.27-6.59,9.48-2.24,20.51,4.73,27.08,6.44,6.07,18.83,9.34,27.92,3.54,90.29-57.6,176.69-147.41,243.36-232.02,49.17-62.39,94.22-126.17,130.49-196.93l52.19-101.83,23.56-53.06Z"/>
    <path fill="#4ecca3" d="M1405.6,502.37c-22.08-1.88-43.2,6.04-53.49,24.75l-70.94,129.05-37.1-2.43c-28.44-1.86-53.07-16.24-70.35-37.16l73.06-140.95c8.82-17.02,5.47-36.11-6.57-49.25-27.81-30.35-39.06-68.59-14.84-102.24,13.1-18.19,33.7-28.08,55.55-27.16,21.22.9,40.99,12.53,52.67,31.84,7.06,11.68,11.27,24.63,16.18,37.7,6.77,18.01,27.72,24.14,45.39,17.68,16.11-5.89,32.04-11.21,49.06-11.45,32.26-.46,57.28,22.55,58.06,54.94.46,19.19-7.7,36.9-21.37,50.27-19.86,19.42-46.34,26.88-75.33,24.41Z"/>
    <path fill="#4ecca3" d="M655.53,1711.11c-24.93-22.25-13.94-49.53-37.38-63.16-11.01-6.41-20.56-4.09-31.47-1.09-16.06,4.42-32.17,1.62-45.13-8.87-10.88-8.81-18.25-23.13-17.89-39.69.87-40.35,39.02-67.32,80.95-62.48,16.77,1.94,33.86-3.84,44.51-17.86l84.04-110.69c32.94,13.33,59.84,35.67,76.37,68.23l-74.4,98.63c-11.37,15.08-12.29,33.11-6.41,50.69l9.94,29.71c5.72,17.09.86,35.35-9.66,49.43-17.76,23.78-50.71,27.44-73.46,7.14Z"/>
    <path fill="#060a12" d="M811.5,1261.7c-9.74,6.36-20.91,2.21-25.71-4.58-5.36-7.58-3.09-18.52,5.71-24.49,55.46-37.62,103.86-83.53,142.47-138.27,7.47-6.49,16.38-8.18,23.37-2.61,5.88,4.68,8.64,15.18,3.32,23.18-38.85,58.33-89.74,107.98-149.16,146.77Z"/>
    <path fill="#060a12" d="M1036.48,994.98c-7.28,8.38-18.38,8.39-25.05,3-7.17-5.79-8.96-16.68-2.06-24.71,38.25-44.56,66.97-94.68,87.7-149.56,3.27-8.65,13.79-11.2,19.94-9.43,9.61,2.76,13.87,13.22,10.59,23.33-18.84,58.16-50.61,110.73-91.11,157.38Z"/>
    <path fill="#060a12" d="M1188.98,963.77c-6.61,7.67-15.75,7.78-23.13,3.47-5.22-3.05-10.66-13.38-5.2-20.54,20.72-27.19,37.06-56.07,49.35-88.1,3.28-8.54,13.63-11.89,20.97-8.94s12.19,11.76,9.28,20.76c-10.96,33.91-27.54,65.82-51.27,93.36Z"/>
    <path fill="#060a12" d="M895.92,1348.6c-6.81,3.97-15.87-1.42-18.13-5.55-3.76-6.9-1.8-14.32,4.94-18.82,14.38-9.62,27.3-20.03,39.88-31.9,5.53-5.22,13.22-6.37,18.81-.91,15.65,15.3-22.2,43.62-45.49,57.18Z"/>
  </g>
</svg>
